<mxfile host="app.diagrams.net" agent="Mozilla/5.0 (Windows NT 10.0; Win64; x64) AppleWebKit/537.36 (KHTML, like Gecko) Chrome/130.0.0.0 Safari/537.36" version="24.8.3">
  <diagram name="Page-1" id="IvZZV4cOHpRiOjzxbnMY">
    <mxGraphModel dx="1054" dy="571" grid="1" gridSize="10" guides="1" tooltips="1" connect="1" arrows="1" fold="1" page="1" pageScale="1" pageWidth="827" pageHeight="1169" math="0" shadow="0">
      <root>
        <mxCell id="0" />
        <mxCell id="1" parent="0" />
        <mxCell id="2z12lEsQvU6_tYwpl8XR-1" value="&lt;b&gt;&lt;font style=&quot;font-size: 20px;&quot;&gt;START&lt;/font&gt;&lt;/b&gt;" style="ellipse;whiteSpace=wrap;html=1;" vertex="1" parent="1">
          <mxGeometry x="340" y="10" width="110" height="70" as="geometry" />
        </mxCell>
        <mxCell id="2z12lEsQvU6_tYwpl8XR-2" value="" style="endArrow=classic;html=1;rounded=0;" edge="1" parent="1">
          <mxGeometry width="50" height="50" relative="1" as="geometry">
            <mxPoint x="394.5" y="80" as="sourcePoint" />
            <mxPoint x="394.5" y="110" as="targetPoint" />
          </mxGeometry>
        </mxCell>
        <mxCell id="2z12lEsQvU6_tYwpl8XR-3" value="&lt;font style=&quot;font-size: 16px;&quot;&gt;Input a number A&lt;/font&gt;" style="shape=parallelogram;perimeter=parallelogramPerimeter;whiteSpace=wrap;html=1;fixedSize=1;" vertex="1" parent="1">
          <mxGeometry x="300" y="110" width="190" height="50" as="geometry" />
        </mxCell>
        <mxCell id="2z12lEsQvU6_tYwpl8XR-7" value="" style="endArrow=none;html=1;rounded=0;" edge="1" parent="1">
          <mxGeometry width="50" height="50" relative="1" as="geometry">
            <mxPoint x="120" y="170" as="sourcePoint" />
            <mxPoint x="400" y="160" as="targetPoint" />
            <Array as="points">
              <mxPoint x="400" y="170" />
            </Array>
          </mxGeometry>
        </mxCell>
        <mxCell id="2z12lEsQvU6_tYwpl8XR-8" value="" style="endArrow=classic;html=1;rounded=0;" edge="1" parent="1">
          <mxGeometry width="50" height="50" relative="1" as="geometry">
            <mxPoint x="120" y="170" as="sourcePoint" />
            <mxPoint x="120" y="200" as="targetPoint" />
          </mxGeometry>
        </mxCell>
        <mxCell id="2z12lEsQvU6_tYwpl8XR-9" value="&lt;font style=&quot;font-size: 15px;&quot;&gt;a &amp;gt; 0&lt;/font&gt;" style="rounded=0;whiteSpace=wrap;html=1;" vertex="1" parent="1">
          <mxGeometry x="80" y="200" width="90" height="50" as="geometry" />
        </mxCell>
        <mxCell id="2z12lEsQvU6_tYwpl8XR-10" value="" style="endArrow=classic;html=1;rounded=0;" edge="1" parent="1">
          <mxGeometry width="50" height="50" relative="1" as="geometry">
            <mxPoint x="170" y="220" as="sourcePoint" />
            <mxPoint x="370" y="220" as="targetPoint" />
          </mxGeometry>
        </mxCell>
        <mxCell id="2z12lEsQvU6_tYwpl8XR-11" value="&lt;font style=&quot;font-size: 15px;&quot;&gt;a &amp;lt; 0&lt;/font&gt;" style="rounded=0;whiteSpace=wrap;html=1;" vertex="1" parent="1">
          <mxGeometry x="369" y="200" width="90" height="50" as="geometry" />
        </mxCell>
        <mxCell id="2z12lEsQvU6_tYwpl8XR-13" value="" style="endArrow=classic;html=1;rounded=0;" edge="1" parent="1">
          <mxGeometry width="50" height="50" relative="1" as="geometry">
            <mxPoint x="459" y="224.5" as="sourcePoint" />
            <mxPoint x="680" y="300" as="targetPoint" />
            <Array as="points">
              <mxPoint x="680" y="225" />
            </Array>
          </mxGeometry>
        </mxCell>
        <mxCell id="2z12lEsQvU6_tYwpl8XR-14" value="" style="endArrow=classic;html=1;rounded=0;" edge="1" parent="1">
          <mxGeometry width="50" height="50" relative="1" as="geometry">
            <mxPoint x="120" y="250" as="sourcePoint" />
            <mxPoint x="120" y="300" as="targetPoint" />
          </mxGeometry>
        </mxCell>
        <mxCell id="2z12lEsQvU6_tYwpl8XR-15" value="" style="endArrow=classic;html=1;rounded=0;" edge="1" parent="1">
          <mxGeometry width="50" height="50" relative="1" as="geometry">
            <mxPoint x="414" y="250" as="sourcePoint" />
            <mxPoint x="414" y="300" as="targetPoint" />
          </mxGeometry>
        </mxCell>
        <mxCell id="2z12lEsQvU6_tYwpl8XR-16" value="&lt;font style=&quot;font-size: 13px;&quot;&gt;Output a &quot; is a positive number&quot;&lt;/font&gt;" style="rounded=0;whiteSpace=wrap;html=1;" vertex="1" parent="1">
          <mxGeometry x="50" y="300" width="155" height="40" as="geometry" />
        </mxCell>
        <mxCell id="2z12lEsQvU6_tYwpl8XR-17" value="&lt;font style=&quot;font-size: 13px;&quot;&gt;output a &quot; is a negative number&quot;&lt;/font&gt;" style="rounded=0;whiteSpace=wrap;html=1;" vertex="1" parent="1">
          <mxGeometry x="335" y="300" width="155" height="40" as="geometry" />
        </mxCell>
        <mxCell id="2z12lEsQvU6_tYwpl8XR-18" value="&lt;font style=&quot;font-size: 12px;&quot;&gt;Output &quot; the number is zero&quot;&lt;/font&gt;" style="rounded=0;whiteSpace=wrap;html=1;" vertex="1" parent="1">
          <mxGeometry x="600" y="300" width="155" height="40" as="geometry" />
        </mxCell>
        <mxCell id="2z12lEsQvU6_tYwpl8XR-19" value="" style="endArrow=none;html=1;rounded=0;" edge="1" parent="1">
          <mxGeometry width="50" height="50" relative="1" as="geometry">
            <mxPoint x="380" y="400" as="sourcePoint" />
            <mxPoint x="120" y="340" as="targetPoint" />
            <Array as="points">
              <mxPoint x="120" y="400" />
            </Array>
          </mxGeometry>
        </mxCell>
        <mxCell id="2z12lEsQvU6_tYwpl8XR-20" value="" style="endArrow=none;html=1;rounded=0;" edge="1" parent="1">
          <mxGeometry width="50" height="50" relative="1" as="geometry">
            <mxPoint x="440" y="400" as="sourcePoint" />
            <mxPoint x="680" y="340" as="targetPoint" />
            <Array as="points">
              <mxPoint x="680" y="400" />
            </Array>
          </mxGeometry>
        </mxCell>
        <mxCell id="2z12lEsQvU6_tYwpl8XR-21" value="" style="ellipse;whiteSpace=wrap;html=1;aspect=fixed;" vertex="1" parent="1">
          <mxGeometry x="382.5" y="370" width="60" height="60" as="geometry" />
        </mxCell>
        <mxCell id="2z12lEsQvU6_tYwpl8XR-22" value="" style="endArrow=none;html=1;rounded=0;" edge="1" parent="1">
          <mxGeometry width="50" height="50" relative="1" as="geometry">
            <mxPoint x="414" y="370" as="sourcePoint" />
            <mxPoint x="414" y="340" as="targetPoint" />
          </mxGeometry>
        </mxCell>
        <mxCell id="2z12lEsQvU6_tYwpl8XR-24" value="" style="endArrow=classic;html=1;rounded=0;" edge="1" parent="1">
          <mxGeometry width="50" height="50" relative="1" as="geometry">
            <mxPoint x="414" y="430" as="sourcePoint" />
            <mxPoint x="414" y="480" as="targetPoint" />
          </mxGeometry>
        </mxCell>
        <mxCell id="2z12lEsQvU6_tYwpl8XR-26" value="&lt;b&gt;&lt;font style=&quot;font-size: 22px;&quot;&gt;STOP&lt;/font&gt;&lt;/b&gt;" style="ellipse;whiteSpace=wrap;html=1;" vertex="1" parent="1">
          <mxGeometry x="360.25" y="480" width="107.5" height="70" as="geometry" />
        </mxCell>
      </root>
    </mxGraphModel>
  </diagram>
</mxfile>
